HIERARCHY
ROOT hip
{
	OFFSET 0.000000 0.000000 0.000000
	CHANNELS 6 Xposition Yposition Zposition Xrotation Zrotation Yrotation 
	JOINT abdomen
	{
		OFFSET 0.000000 3.422050 0.000000
		CHANNELS 3 Xrotation Zrotation Yrotation 
		JOINT chest
		{
			OFFSET 0.000000 8.486693 -0.684411
			CHANNELS 3 Xrotation Zrotation Yrotation 
			JOINT neck
			{
				OFFSET 0.000000 10.266162 -0.273764
				CHANNELS 3 Xrotation Zrotation Yrotation 
				JOINT head
				{
					OFFSET 0.000000 3.148285 0.000000
					CHANNELS 3 Xrotation Zrotation Yrotation 
					End Site
					{
						OFFSET 0.000000 3.148289 0.000000
					}
				}
			}
			JOINT lCollar
			{
				OFFSET 3.422053 6.707223 -0.821293
				CHANNELS 3 Yrotation Zrotation Xrotation 
				JOINT lShldr
				{
					OFFSET 3.285171 0.000000 0.000000
					CHANNELS 3 Zrotation Yrotation Xrotation 
					JOINT lForeArm
					{
						OFFSET 10.129278 0.000000 0.000000
						CHANNELS 3 Yrotation Zrotation Xrotation 
						JOINT lHand
						{
							OFFSET 8.486692 0.000000 0.000000
							CHANNELS 3 Zrotation Yrotation Xrotation 
							End Site
							{
								OFFSET 4.106464 0.000000 0.000000
							}
						}
					}
				}
			}
			JOINT rCollar
			{
				OFFSET -3.558935 6.707223 -0.821293
				CHANNELS 3 Yrotation Zrotation Xrotation 
				JOINT rShldr
				{
					OFFSET -3.148289 0.000000 0.000000
					CHANNELS 3 Zrotation Yrotation Xrotation 
					JOINT rForeArm
					{
						OFFSET -10.266159 0.000000 0.000000
						CHANNELS 3 Yrotation Zrotation Xrotation 
						JOINT rHand
						{
							OFFSET -8.349810 0.000000 0.000000
							CHANNELS 3 Zrotation Yrotation Xrotation 
							End Site
							{
								OFFSET -4.106464 0.000000 0.000000
							}
						}
					}
				}
			}
		}
	}
	JOINT lThigh
	{
		OFFSET 5.338403 -1.642589 1.368821
		CHANNELS 3 Xrotation Zrotation Yrotation 
		JOINT lShin
		{
			OFFSET -2.053232 -20.121670 0.000000
			CHANNELS 3 Xrotation Zrotation Yrotation 
			JOINT lFoot
			{
				OFFSET 0.000000 -19.300380 -1.231939
				CHANNELS 3 Xrotation Yrotation Zrotation 
				End Site
				{
					OFFSET 0.000000 -2.463878 4.653993
				}
			}
		}
	}
	JOINT rThigh
	{
		OFFSET -5.338403 -1.642589 1.368821
		CHANNELS 3 Xrotation Zrotation Yrotation 
		JOINT rShin
		{
			OFFSET 2.053232 -20.121670 0.000000
			CHANNELS 3 Xrotation Zrotation Yrotation 
			JOINT rFoot
			{
				OFFSET 0.000000 -19.300380 -1.231939
				CHANNELS 3 Xrotation Yrotation Zrotation 
				End Site
				{
					OFFSET 0.000000 -2.463878 4.653993
				}
			}
		}
	}
}
MOTION
Frames: 18
Frame Time: 0.033264
0.000000 43.528500 0.000000 0.000000 0.000000 0.000000 0.000000 0.000000 0.000000 0.000000 0.000000 0.000000 0.000000 0.000000 0.000000 0.000000 0.000000 0.000000 0.000000 0.000000 0.000000 0.000000 0.000000 0.000000 0.000000 0.000000 0.000000 0.000000 0.000000 0.000000 0.000000 0.000000 0.000000 0.000000 0.000000 0.000000 0.000000 0.000000 0.000000 0.000000 0.000000 0.000000 0.000000 0.000000 0.000000 0.000000 0.000000 0.000000 0.000000 0.000000 0.000000 0.000000 0.000000 0.000000 0.000000 0.000000 0.000000 0.000000 0.000000 0.000000 
-16.000916 3.996296 15.994888 154.964844 -73.412292 103.009270 10.643841 0.232917 -0.520944 50.684654 3.855527 -0.610578 10.997673 1.997655 -0.002681 -20.334143 1.998806 -2.002009 -28.089140 -52.655621 -4.664076 87.306900 5.480227 -136.774796 -120.383011 -30.299955 -49.434860 -15.245102 -1.721336 -8.708000 -2.777505 -6.970036 6.452957 71.190720 18.937126 35.179554 95.123421 -21.363922 -42.541401 24.998369 17.996712 -0.001123 -16.192633 27.449276 -19.450893 92.675774 0.175367 -0.730540 25.763994 -11.121145 -27.702621 1.999446 -4.000242 26.998205 33.997101 0.000000 0.000000 31.234835 14.925586 24.355371 
-16.000916 3.996296 15.994888 154.964844 -73.412292 103.009270 10.643841 0.232917 -0.520944 50.684654 3.855527 -0.610578 10.997673 1.997655 -0.002681 -20.471230 1.710812 -2.285529 -28.089140 -52.655621 -4.664076 87.306900 5.480227 -136.774796 -120.383011 -30.299955 -49.434860 -15.245102 -1.721336 -8.708000 -2.777505 -6.970036 6.452957 71.190720 18.937130 35.179554 96.108063 -20.979465 -41.628735 23.044083 17.996740 -0.001070 -16.204258 27.531094 -19.384981 92.675774 0.175367 -0.730540 25.763994 -11.121145 -27.702621 1.999446 -4.000242 26.998205 33.997101 0.000000 0.000000 31.234835 14.925586 24.355371 
-16.000916 3.996296 15.994888 154.964844 -73.412308 103.009285 10.643841 0.232917 -0.520944 50.684658 3.855527 -0.610578 10.997673 1.997655 -0.002681 -20.607059 1.421738 -2.568717 -28.089144 -52.655624 -4.664075 87.306900 5.480226 -136.774796 -120.383011 -30.299955 -49.434860 -15.245102 -1.721336 -8.708000 -2.777505 -6.970036 6.452957 71.190720 18.937126 35.179554 97.086159 -20.579407 -40.723175 21.073320 17.996773 -0.001019 -16.215794 27.612934 -19.319023 92.675774 0.175367 -0.730540 25.763996 -11.121145 -27.702621 1.999446 -4.000242 26.998205 33.997101 0.000000 0.000000 31.234840 14.925588 24.355371 
-16.000916 3.996296 15.994888 154.964844 -73.412300 103.009277 10.643841 0.232917 -0.520944 50.684654 3.855527 -0.610578 10.997673 1.997655 -0.002681 -20.741625 1.131597 -2.851575 -28.089140 -52.655621 -4.664076 87.306900 5.480227 -136.774796 -120.383011 -30.299955 -49.434864 -15.245106 -1.721336 -8.708000 -2.777505 -6.970036 6.452957 71.190720 18.937130 35.179554 98.057274 -20.163952 -39.825157 19.087055 17.996807 -0.000967 -16.227230 27.694809 -19.253023 92.675774 0.175367 -0.730540 25.763994 -11.121145 -27.702621 1.999446 -4.000242 26.998205 33.997105 0.000000 0.000000 31.234838 14.925586 24.355373 
-16.000916 3.996296 15.994888 154.964844 -73.412300 103.009277 10.643841 0.232917 -0.520944 50.684654 3.855527 -0.610578 10.997675 1.997655 -0.002681 -20.874928 0.840403 -3.134109 -28.089142 -52.655624 -4.664078 87.306900 5.480227 -136.774796 -120.383011 -30.299959 -49.434860 -15.245102 -1.721336 -8.708000 -2.777506 -6.970036 6.452957 71.190727 18.937128 35.179554 99.020966 -19.733326 -38.935047 17.086306 17.996843 -0.000916 -16.238569 27.776703 -19.186977 92.675774 0.175367 -0.730540 25.763994 -11.121145 -27.702621 1.999446 -4.000242 26.998205 33.997105 0.000000 0.000000 31.234838 14.925586 24.355373 
-16.000916 3.996296 15.994888 154.964844 -73.412292 103.009270 10.643842 0.232917 -0.520944 50.684654 3.855527 -0.610578 10.997674 1.997655 -0.002681 -21.006956 0.548168 -3.416319 -28.089142 -52.655624 -4.664075 87.306900 5.480227 -136.774796 -120.383011 -30.299955 -49.434860 -15.245102 -1.721336 -8.708000 -2.777506 -6.970036 6.452957 71.190720 18.937130 35.179554 99.976921 -19.287804 -38.053299 15.072148 17.996880 -0.000867 -16.249813 27.858624 -19.120888 92.675774 0.175367 -0.730540 25.763998 -11.121146 -27.702623 1.999446 -4.000242 26.998205 33.997105 0.000000 0.000000 31.234835 14.925586 24.355373 
-16.000916 3.996296 15.994888 154.964844 -73.412285 103.009254 10.643840 0.232917 -0.520944 50.684654 3.855527 -0.610578 10.997673 1.997655 -0.002681 -21.137703 0.254906 -3.698210 -28.089140 -52.655621 -4.664076 87.306892 5.480227 -136.774796 -120.383003 -30.299950 -49.434853 -15.245102 -1.721336 -8.707999 -2.777505 -6.970036 6.452957 71.190720 18.937126 35.179554 100.924728 -18.827633 -37.180225 13.045708 17.996918 -0.000819 -16.260965 27.940584 -19.054760 92.675774 0.175367 -0.730540 25.763994 -11.121145 -27.702621 1.999446 -4.000242 26.998205 33.997097 0.000000 0.000000 31.234835 14.925586 24.355370 
-16.000916 3.996296 15.994888 154.964844 -73.412285 103.009254 10.643840 0.232917 -0.520944 50.684650 3.855527 -0.610578 10.997673 1.997655 -0.002681 -21.267176 -0.039368 -3.979787 -28.089134 -52.655617 -4.664077 87.306892 5.480229 -136.774796 -120.383011 -30.299955 -49.434860 -15.245102 -1.721336 -8.708000 -2.777505 -6.970035 6.452956 71.190720 18.937126 35.179554 101.864059 -18.353115 -36.316193 11.008143 17.996960 -0.000771 -16.272017 28.022556 -18.988583 92.675766 0.175367 -0.730540 25.763992 -11.121144 -27.702621 1.999445 -4.000242 26.998205 33.997101 0.000000 0.000000 31.234835 14.925586 24.355370 
-16.000916 3.996296 15.994888 154.964844 -73.412292 103.009270 10.643841 0.232917 -0.520944 50.684654 3.855527 -0.610578 10.997673 1.997655 -0.002681 -21.395355 -0.334643 -4.261051 -28.089140 -52.655621 -4.664076 87.306892 5.480229 -136.774796 -120.383011 -30.299955 -49.434860 -15.245100 -1.721336 -8.708000 -2.777505 -6.970035 6.452957 71.190712 18.937126 35.179550 102.794632 -17.864548 -35.461517 8.960664 17.997005 -0.000726 -16.282970 28.104563 -18.922359 92.675774 0.175367 -0.730540 25.763992 -11.121144 -27.702621 1.999445 -4.000242 26.998203 33.997101 0.000000 0.000000 31.234831 14.925584 24.355371 
-16.000916 3.996296 15.994888 154.964844 -73.412285 103.009270 10.643841 0.232917 -0.520944 50.684650 3.855527 -0.610578 10.997673 1.997655 -0.002681 -21.522245 -0.630903 -4.542009 -28.089140 -52.655621 -4.664076 87.306892 5.480228 -136.774796 -120.383011 -30.299955 -49.434860 -15.245102 -1.721336 -8.708000 -2.777505 -6.970036 6.452956 71.190720 18.937126 35.179554 103.716125 -17.362246 -34.616482 6.904514 17.997046 -0.000682 -16.293827 28.186590 -18.856092 92.675766 0.175367 -0.730540 25.763994 -11.121145 -27.702621 1.999446 -4.000242 26.998205 33.997101 0.000000 0.000000 31.234835 14.925586 24.355371 
-16.000916 3.996296 15.994888 154.964844 -73.412292 103.009270 10.643841 0.232917 -0.520944 50.684654 3.855527 -0.610578 10.997672 1.997654 -0.002681 -21.647842 -0.928135 -4.822662 -28.089140 -52.655621 -4.664076 87.306892 5.480229 -136.774796 -120.383011 -30.299955 -49.434860 -15.245102 -1.721336 -8.708000 -2.777505 -6.970036 6.452957 71.190720 18.937126 35.179554 104.628304 -16.846535 -33.781364 4.840968 17.997091 -0.000639 -16.304590 28.268652 -18.789785 92.675774 0.175367 -0.730540 25.763994 -11.121145 -27.702621 1.999446 -4.000242 26.998205 33.997101 0.000000 0.000000 31.234835 14.925586 24.355371 
-16.000916 3.996296 15.994888 154.964844 -73.412292 103.009270 10.643841 0.232917 -0.520944 50.684654 3.855527 -0.610578 10.997673 1.997655 -0.002681 -21.772131 -1.226324 -5.103016 -28.089140 -52.655621 -4.664076 87.306900 5.480227 -136.774796 -120.383011 -30.299955 -49.434860 -15.245102 -1.721336 -8.708000 -2.777505 -6.970036 6.452957 71.190720 18.937126 35.179554 105.530907 -16.317759 -32.956409 2.771333 17.997143 -0.000598 -16.315256 28.350739 -18.723434 92.675774 0.175367 -0.730540 25.763994 -11.121145 -27.702621 1.999446 -4.000242 26.998205 33.997101 0.000000 0.000000 31.234835 14.925586 24.355371 
-16.000916 3.996296 15.994888 154.964844 -73.412292 103.009270 10.643841 0.232917 -0.520944 50.684654 3.855527 -0.610578 10.997673 1.997655 -0.002681 -21.895115 -1.525457 -5.383074 -28.089140 -52.655621 -4.664076 87.306900 5.480227 -136.774796 -120.383011 -30.299955 -49.434860 -15.245102 -1.721336 -8.708000 -2.777505 -6.970036 6.452957 71.190720 18.937126 35.179554 106.423721 -15.776272 -32.141850 0.696936 17.997190 -0.000558 -16.325815 28.432835 -18.657028 92.675774 0.175367 -0.730540 25.763994 -11.121145 -27.702621 1.999446 -4.000242 26.998205 33.997105 0.000000 0.000000 31.234835 14.925586 24.355371 
-16.000916 3.996296 15.994888 154.964859 -73.412308 103.009262 10.643841 0.232917 -0.520944 50.684654 3.855527 -0.610578 10.997673 1.997655 -0.002681 -22.016788 -1.825520 -5.662843 -28.089142 -52.655624 -4.664078 87.306915 5.480226 -136.774811 -120.383011 -30.299955 -49.434860 -15.245102 -1.721336 -8.708000 -2.777505 -6.970036 6.452957 71.190720 18.937126 35.179554 107.306549 -15.222431 -31.337864 -1.380878 17.997244 -0.000521 -16.336281 28.514961 -18.590576 92.675774 0.175367 -0.730540 25.763994 -11.121145 -27.702621 1.999446 -4.000242 26.998205 33.997101 0.000000 0.000000 31.234835 14.925588 24.355373 
-16.000916 3.996296 15.994888 154.964844 -73.412300 103.009277 10.643841 0.232917 -0.520944 50.684654 3.855527 -0.610578 10.997673 1.997655 -0.002681 -22.137148 -2.126498 -5.942325 -28.089142 -52.655624 -4.664074 87.306915 5.480225 -136.774811 -120.383011 -30.299955 -49.434860 -15.245106 -1.721336 -8.708001 -2.777506 -6.970036 6.452957 71.190720 18.937126 35.179554 108.179253 -14.656616 -30.544651 -3.460746 17.997295 -0.000485 -16.346651 28.597122 -18.524086 92.675774 0.175367 -0.730540 25.763996 -11.121146 -27.702623 1.999446 -4.000242 26.998205 33.997101 0.000000 0.000000 31.234835 14.925586 24.355371 
-16.000916 3.996296 15.994888 154.964859 -73.412308 103.009262 10.643841 0.232917 -0.520944 50.684654 3.855527 -0.610578 10.997675 1.997655 -0.002681 -22.256180 -2.428376 -6.221525 -28.089142 -52.655621 -4.664078 87.306915 5.480226 -136.774811 -120.383011 -30.299955 -49.434860 -15.245102 -1.721336 -8.708000 -2.777505 -6.970036 6.452957 71.190720 18.937126 35.179554 109.041649 -14.079204 -29.762356 -5.541297 17.997347 -0.000452 -16.356920 28.679302 -18.457548 92.675774 0.175367 -0.730540 25.763998 -11.121146 -27.702623 1.999446 -4.000242 26.998205 33.997105 0.000000 0.000000 31.234835 14.925586 24.355371 
-16.000916 3.996296 15.994888 154.964844 -73.412300 103.009285 10.643842 0.232917 -0.520944 50.684654 3.855528 -0.610578 10.997673 1.997655 -0.002681 -22.373886 -2.731139 -6.500446 -28.089140 -52.655621 -4.664076 87.306915 5.480230 -136.774811 -120.383011 -30.299955 -49.434864 -15.245102 -1.721336 -8.708000 -2.777506 -6.970037 6.452957 71.190720 18.937132 35.179554 109.893616 -13.490575 -28.991114 -7.621167 17.997402 -0.000420 -16.367088 28.761503 -18.390959 92.675781 0.175367 -0.730540 25.763998 -11.121146 -27.702623 1.999446 -4.000243 26.998205 33.997101 0.000000 0.000000 31.234840 14.925588 24.355373 
